<?xml version="1.0" encoding="UTF-8" standalone="no"?>
<!DOCTYPE svg PUBLIC "-//W3C//DTD SVG 1.1//EN"
 "http://www.w3.org/Graphics/SVG/1.1/DTD/svg11.dtd">
<!-- Generated by graphviz version 2.26.0 (20091210.2329)
 -->
<!-- Title: controllers_diagram Pages: 1 -->
<svg width="506pt" height="453pt"
 viewBox="0.00 0.00 506.00 453.00" xmlns="http://www.w3.org/2000/svg" xmlns:xlink="http://www.w3.org/1999/xlink">
<g id="graph1" class="graph" transform="scale(1 1) rotate(0) translate(4 449)">
<title>controllers_diagram</title>
<polygon fill="white" stroke="white" points="-4,5 -4,-449 503,-449 503,5 -4,5"/>
<!-- _diagram_info -->
<g id="node1" class="node"><title>_diagram_info</title>
<text text-anchor="start" x="9" y="-398.3" font-family="Times Roman,serif" font-size="13.00">Controllers diagram</text>
<text text-anchor="start" x="9" y="-381.3" font-family="Times Roman,serif" font-size="13.00">Date: Apr 26 2015 &#45; 11:06</text>
<text text-anchor="start" x="9" y="-364.3" font-family="Times Roman,serif" font-size="13.00">Migration version: 20150215100213</text>
<text text-anchor="start" x="9" y="-347.3" font-family="Times Roman,serif" font-size="13.00">Generated by RailRoady 1.3.0</text>
<text text-anchor="start" x="9" y="-330.3" font-family="Times Roman,serif" font-size="13.00">http://railroady.prestonlee.com</text>
</g>
<!-- ApplicationController -->
<g id="node2" class="node"><title>ApplicationController</title>
<polyline fill="none" stroke="black" points="373,-341.5 485,-341.5 "/>
<path fill="none" stroke="black" d="M485,-341.5C491,-341.5 497,-347.5 497,-353.5"/>
<polyline fill="none" stroke="black" points="497,-353.5 497,-431.5 "/>
<path fill="none" stroke="black" d="M497,-431.5C497,-437.5 491,-443.5 485,-443.5"/>
<polyline fill="none" stroke="black" points="485,-443.5 373,-443.5 "/>
<path fill="none" stroke="black" d="M373,-443.5C367,-443.5 361,-437.5 361,-431.5"/>
<polyline fill="none" stroke="black" points="361,-431.5 361,-353.5 "/>
<path fill="none" stroke="black" d="M361,-353.5C361,-347.5 367,-341.5 373,-341.5"/>
<text text-anchor="middle" x="429" y="-426.9" font-family="Times Roman,serif" font-size="14.00">ApplicationController</text>
<polyline fill="none" stroke="black" points="361,-416.5 497,-416.5 "/>
<polyline fill="none" stroke="black" points="361,-392.5 497,-392.5 "/>
<polyline fill="none" stroke="black" points="361,-368.5 497,-368.5 "/>
<text text-anchor="start" x="369" y="-351.9" font-family="Times Roman,serif" font-size="14.00">_layout</text>
</g>
<!-- BlogIndicesController -->
<g id="node3" class="node"><title>BlogIndicesController</title>
<polyline fill="none" stroke="black" points="93,-1.5 206,-1.5 "/>
<path fill="none" stroke="black" d="M206,-1.5C212,-1.5 218,-7.5 218,-13.5"/>
<polyline fill="none" stroke="black" points="218,-13.5 218,-265.5 "/>
<path fill="none" stroke="black" d="M218,-265.5C218,-271.5 212,-277.5 206,-277.5"/>
<polyline fill="none" stroke="black" points="206,-277.5 93,-277.5 "/>
<path fill="none" stroke="black" d="M93,-277.5C87,-277.5 81,-271.5 81,-265.5"/>
<polyline fill="none" stroke="black" points="81,-265.5 81,-13.5 "/>
<path fill="none" stroke="black" d="M81,-13.5C81,-7.5 87,-1.5 93,-1.5"/>
<text text-anchor="middle" x="149.5" y="-260.9" font-family="Times Roman,serif" font-size="14.00">BlogIndicesController</text>
<polyline fill="none" stroke="black" points="81,-250.5 218,-250.5 "/>
<text text-anchor="start" x="89" y="-233.9" font-family="Times Roman,serif" font-size="14.00">create</text>
<text text-anchor="start" x="89" y="-214.9" font-family="Times Roman,serif" font-size="14.00">destroy</text>
<text text-anchor="start" x="89" y="-195.9" font-family="Times Roman,serif" font-size="14.00">edit</text>
<text text-anchor="start" x="89" y="-176.9" font-family="Times Roman,serif" font-size="14.00">index</text>
<text text-anchor="start" x="89" y="-157.9" font-family="Times Roman,serif" font-size="14.00">new</text>
<text text-anchor="start" x="89" y="-138.9" font-family="Times Roman,serif" font-size="14.00">show</text>
<text text-anchor="start" x="89" y="-119.9" font-family="Times Roman,serif" font-size="14.00">update</text>
<polyline fill="none" stroke="black" points="81,-109.5 218,-109.5 "/>
<polyline fill="none" stroke="black" points="81,-85.5 218,-85.5 "/>
<text text-anchor="start" x="89" y="-68.9" font-family="Times Roman,serif" font-size="14.00">_layout</text>
<text text-anchor="start" x="89" y="-49.9" font-family="Times Roman,serif" font-size="14.00">blog_data_create</text>
<text text-anchor="start" x="89" y="-30.9" font-family="Times Roman,serif" font-size="14.00">blog_index_params</text>
<text text-anchor="start" x="89" y="-11.9" font-family="Times Roman,serif" font-size="14.00">set_blog_index</text>
</g>
<!-- BlogUsersController -->
<g id="node4" class="node"><title>BlogUsersController</title>
<polyline fill="none" stroke="black" points="273,-41.5 378,-41.5 "/>
<path fill="none" stroke="black" d="M378,-41.5C384,-41.5 390,-47.5 390,-53.5"/>
<polyline fill="none" stroke="black" points="390,-53.5 390,-286.5 "/>
<path fill="none" stroke="black" d="M390,-286.5C390,-292.5 384,-298.5 378,-298.5"/>
<polyline fill="none" stroke="black" points="378,-298.5 273,-298.5 "/>
<path fill="none" stroke="black" d="M273,-298.5C267,-298.5 261,-292.5 261,-286.5"/>
<polyline fill="none" stroke="black" points="261,-286.5 261,-53.5 "/>
<path fill="none" stroke="black" d="M261,-53.5C261,-47.5 267,-41.5 273,-41.5"/>
<text text-anchor="middle" x="325.5" y="-281.9" font-family="Times Roman,serif" font-size="14.00">BlogUsersController</text>
<polyline fill="none" stroke="black" points="261,-271.5 390,-271.5 "/>
<text text-anchor="start" x="269" y="-254.9" font-family="Times Roman,serif" font-size="14.00">create</text>
<text text-anchor="start" x="269" y="-235.9" font-family="Times Roman,serif" font-size="14.00">destroy</text>
<text text-anchor="start" x="269" y="-216.9" font-family="Times Roman,serif" font-size="14.00">edit</text>
<text text-anchor="start" x="269" y="-197.9" font-family="Times Roman,serif" font-size="14.00">index</text>
<text text-anchor="start" x="269" y="-178.9" font-family="Times Roman,serif" font-size="14.00">new</text>
<text text-anchor="start" x="269" y="-159.9" font-family="Times Roman,serif" font-size="14.00">show</text>
<text text-anchor="start" x="269" y="-140.9" font-family="Times Roman,serif" font-size="14.00">update</text>
<polyline fill="none" stroke="black" points="261,-130.5 390,-130.5 "/>
<polyline fill="none" stroke="black" points="261,-106.5 390,-106.5 "/>
<text text-anchor="start" x="269" y="-89.9" font-family="Times Roman,serif" font-size="14.00">_layout</text>
<text text-anchor="start" x="269" y="-70.9" font-family="Times Roman,serif" font-size="14.00">blog_user_params</text>
<text text-anchor="start" x="269" y="-51.9" font-family="Times Roman,serif" font-size="14.00">set_blog_user</text>
</g>
</g>
</svg>
