<?xml version="1.0" encoding="UTF-8" standalone="no"?>
<!DOCTYPE svg PUBLIC "-//W3C//DTD SVG 1.1//EN"
 "http://www.w3.org/Graphics/SVG/1.1/DTD/svg11.dtd">
<!-- Generated by graphviz version 2.26.0 (20091210.2329)
 -->
<!-- Title: models_diagram Pages: 1 -->
<svg width="722pt" height="176pt"
 viewBox="0.00 0.00 722.00 176.00" xmlns="http://www.w3.org/2000/svg" xmlns:xlink="http://www.w3.org/1999/xlink">
<g id="graph1" class="graph" transform="scale(1 1) rotate(0) translate(4 172)">
<title>models_diagram</title>
<polygon fill="white" stroke="white" points="-4,5 -4,-172 719,-172 719,5 -4,5"/>
<!-- _diagram_info -->
<g id="node1" class="node"><title>_diagram_info</title>
<text text-anchor="start" x="8" y="-151.8" font-family="Times Roman,serif" font-size="13.00">Models diagram</text>
<text text-anchor="start" x="8" y="-134.8" font-family="Times Roman,serif" font-size="13.00">Date: Apr 26 2015 &#45; 11:06</text>
<text text-anchor="start" x="8" y="-117.8" font-family="Times Roman,serif" font-size="13.00">Migration version: 20150215100213</text>
<text text-anchor="start" x="8" y="-100.8" font-family="Times Roman,serif" font-size="13.00">Generated by RailRoady 1.3.0</text>
<text text-anchor="start" x="8" y="-83.8" font-family="Times Roman,serif" font-size="13.00">http://railroady.prestonlee.com</text>
</g>
<!-- BlogImages -->
<g id="node2" class="node"><title>BlogImages</title>
<ellipse fill="none" stroke="black" cx="290" cy="-121" rx="58.1882" ry="19.0919"/>
<text text-anchor="middle" x="290" y="-117.9" font-family="Times Roman,serif" font-size="14.00">BlogImages</text>
</g>
<!-- BlogImage -->
<g id="node7" class="node"><title>BlogImage</title>
<ellipse fill="none" stroke="black" cx="291" cy="-19" rx="53.9477" ry="19.0919"/>
<text text-anchor="middle" x="291" y="-15.9" font-family="Times Roman,serif" font-size="14.00">BlogImage</text>
</g>
<!-- BlogImages&#45;&gt;BlogImage -->
<g id="edge2" class="edge"><title>BlogImages&#45;&gt;BlogImage</title>
<path fill="none" stroke="#706562" d="M290.268,-93.6356C290.405,-79.6521 290.572,-62.6248 290.712,-48.3666"/>
<ellipse fill="none" stroke="#706562" cx="290.227" cy="-97.8148" rx="4" ry="4"/>
<polygon fill="#706562" stroke="#706562" points="290.715,-48.0989 295.313,-38.1436 290.764,-43.0992 290.813,-38.0994 290.813,-38.0994 290.813,-38.0994 290.764,-43.0992 286.313,-38.0552 290.715,-48.0989 290.715,-48.0989"/>
</g>
<!-- BlogTexte -->
<g id="node9" class="node"><title>BlogTexte</title>
<ellipse fill="none" stroke="black" cx="417" cy="-19" rx="51.8276" ry="19.0919"/>
<text text-anchor="middle" x="417" y="-15.9" font-family="Times Roman,serif" font-size="14.00">BlogTexte</text>
</g>
<!-- BlogImages&#45;&gt;BlogTexte -->
<g id="edge4" class="edge"><title>BlogImages&#45;&gt;BlogTexte</title>
<path fill="none" stroke="#e0094e" d="M318.406,-98.1854C338.886,-81.7371 366.466,-59.5866 387.248,-42.8956"/>
<ellipse fill="none" stroke="#e0094e" cx="315.24" cy="-100.728" rx="4.00002" ry="4.00002"/>
<polygon fill="#e0094e" stroke="#e0094e" points="387.335,-42.8254 397.95,-40.072 391.233,-39.6944 395.132,-36.5634 395.132,-36.5634 395.132,-36.5634 391.233,-39.6944 392.314,-33.0549 387.335,-42.8254 387.335,-42.8254"/>
</g>
<!-- BlogIndex -->
<g id="node3" class="node"><title>BlogIndex</title>
<ellipse fill="none" stroke="black" cx="418" cy="-121" rx="51.8276" ry="19.0919"/>
<text text-anchor="middle" x="418" y="-117.9" font-family="Times Roman,serif" font-size="14.00">BlogIndex</text>
</g>
<!-- BlogIndex&#45;&gt;BlogImage -->
<g id="edge6" class="edge"><title>BlogIndex&#45;&gt;BlogImage</title>
<path fill="none" stroke="#39bb76" d="M390.189,-98.6635C369.74,-82.2403 341.98,-59.9443 321.027,-43.1164"/>
<ellipse fill="none" stroke="#39bb76" cx="393.337" cy="-101.192" rx="4.00002" ry="4.00002"/>
<polygon fill="#39bb76" stroke="#39bb76" points="320.873,-42.9926 315.894,-33.2221 316.975,-39.8616 313.076,-36.7306 313.076,-36.7306 313.076,-36.7306 316.975,-39.8616 310.258,-40.2391 320.873,-42.9926 320.873,-42.9926"/>
</g>
<!-- BlogIndex&#45;&gt;BlogTexte -->
<g id="edge8" class="edge"><title>BlogIndex&#45;&gt;BlogTexte</title>
<path fill="none" stroke="#4a6bf9" d="M417.732,-93.6356C417.595,-79.6521 417.428,-62.6248 417.288,-48.3666"/>
<ellipse fill="none" stroke="#4a6bf9" cx="417.773" cy="-97.8148" rx="4" ry="4"/>
<polygon fill="#4a6bf9" stroke="#4a6bf9" points="417.285,-48.0989 421.687,-38.0552 417.236,-43.0992 417.187,-38.0994 417.187,-38.0994 417.187,-38.0994 417.236,-43.0992 412.687,-38.1436 417.285,-48.0989 417.285,-48.0989"/>
</g>
<!-- BlogTextes -->
<g id="node4" class="node"><title>BlogTextes</title>
<ellipse fill="none" stroke="black" cx="544" cy="-121" rx="55.8614" ry="19.0919"/>
<text text-anchor="middle" x="544" y="-117.9" font-family="Times Roman,serif" font-size="14.00">BlogTextes</text>
</g>
<!-- BlogUser -->
<g id="node5" class="node"><title>BlogUser</title>
<ellipse fill="none" stroke="black" cx="666" cy="-121" rx="48.0833" ry="19.0919"/>
<text text-anchor="middle" x="666" y="-117.9" font-family="Times Roman,serif" font-size="14.00">BlogUser</text>
</g>
</g>
</svg>
