<?xml version="1.0" encoding="UTF-8" standalone="no"?>
<!DOCTYPE svg PUBLIC "-//W3C//DTD SVG 1.1//EN"
 "http://www.w3.org/Graphics/SVG/1.1/DTD/svg11.dtd">
<!-- Generated by graphviz version 2.26.0 (20091210.2329)
 -->
<!-- Title: models_diagram Pages: 1 -->
<svg width="884pt" height="366pt"
 viewBox="0.00 0.00 884.00 366.00" xmlns="http://www.w3.org/2000/svg" xmlns:xlink="http://www.w3.org/1999/xlink">
<g id="graph1" class="graph" transform="scale(1 1) rotate(0) translate(4 362)">
<title>models_diagram</title>
<polygon fill="white" stroke="white" points="-4,5 -4,-362 881,-362 881,5 -4,5"/>
<!-- _diagram_info -->
<g id="node1" class="node"><title>_diagram_info</title>
<text text-anchor="start" x="8" y="-246.8" font-family="Times Roman,serif" font-size="13.00">Models diagram</text>
<text text-anchor="start" x="8" y="-229.8" font-family="Times Roman,serif" font-size="13.00">Date: Apr 26 2015 &#45; 11:06</text>
<text text-anchor="start" x="8" y="-212.8" font-family="Times Roman,serif" font-size="13.00">Migration version: 20150215100213</text>
<text text-anchor="start" x="8" y="-195.8" font-family="Times Roman,serif" font-size="13.00">Generated by RailRoady 1.3.0</text>
<text text-anchor="start" x="8" y="-178.8" font-family="Times Roman,serif" font-size="13.00">http://railroady.prestonlee.com</text>
</g>
<!-- BlogImages -->
<g id="node2" class="node"><title>BlogImages</title>
<polyline fill="none" stroke="black" points="243.5,-141.5 350.5,-141.5 "/>
<path fill="none" stroke="black" d="M350.5,-141.5C356.5,-141.5 362.5,-147.5 362.5,-153.5"/>
<polyline fill="none" stroke="black" points="362.5,-153.5 362.5,-278.5 "/>
<path fill="none" stroke="black" d="M362.5,-278.5C362.5,-284.5 356.5,-290.5 350.5,-290.5"/>
<polyline fill="none" stroke="black" points="350.5,-290.5 243.5,-290.5 "/>
<path fill="none" stroke="black" d="M243.5,-290.5C237.5,-290.5 231.5,-284.5 231.5,-278.5"/>
<polyline fill="none" stroke="black" points="231.5,-278.5 231.5,-153.5 "/>
<path fill="none" stroke="black" d="M231.5,-153.5C231.5,-147.5 237.5,-141.5 243.5,-141.5"/>
<text text-anchor="middle" x="297" y="-273.9" font-family="Times Roman,serif" font-size="14.00">BlogImages</text>
<polyline fill="none" stroke="black" points="231.5,-263.5 362.5,-263.5 "/>
<text text-anchor="start" x="239.5" y="-246.9" font-family="Times Roman,serif" font-size="14.00">id :integer</text>
<text text-anchor="start" x="239.5" y="-227.9" font-family="Times Roman,serif" font-size="14.00">contents_id :integer</text>
<text text-anchor="start" x="239.5" y="-208.9" font-family="Times Roman,serif" font-size="14.00">detail_id :integer</text>
<text text-anchor="start" x="239.5" y="-189.9" font-family="Times Roman,serif" font-size="14.00">image :binary</text>
<text text-anchor="start" x="239.5" y="-170.9" font-family="Times Roman,serif" font-size="14.00">created_at :datetime</text>
<text text-anchor="start" x="239.5" y="-151.9" font-family="Times Roman,serif" font-size="14.00">updated_at :datetime</text>
</g>
<!-- BlogImage -->
<g id="node7" class="node"><title>BlogImage</title>
<ellipse fill="none" stroke="black" cx="303" cy="-19" rx="53.9477" ry="19.0919"/>
<text text-anchor="middle" x="303" y="-15.9" font-family="Times Roman,serif" font-size="14.00">BlogImage</text>
</g>
<!-- BlogImages&#45;&gt;BlogImage -->
<g id="edge2" class="edge"><title>BlogImages&#45;&gt;BlogImage</title>
<path fill="none" stroke="#0593b2" d="M299.531,-132.883C300.448,-102.799 301.424,-70.7528 302.106,-48.3441"/>
<ellipse fill="none" stroke="#0593b2" cx="299.399" cy="-137.244" rx="4" ry="4"/>
<polygon fill="#0593b2" stroke="#0593b2" points="302.112,-48.1638 306.914,-38.3055 302.264,-43.1662 302.416,-38.1685 302.416,-38.1685 302.416,-38.1685 302.264,-43.1662 297.918,-38.0314 302.112,-48.1638 302.112,-48.1638"/>
</g>
<!-- BlogTexte -->
<g id="node9" class="node"><title>BlogTexte</title>
<ellipse fill="none" stroke="black" cx="439" cy="-19" rx="51.8276" ry="19.0919"/>
<text text-anchor="middle" x="439" y="-15.9" font-family="Times Roman,serif" font-size="14.00">BlogTexte</text>
</g>
<!-- BlogImages&#45;&gt;BlogTexte -->
<g id="edge4" class="edge"><title>BlogImages&#45;&gt;BlogTexte</title>
<path fill="none" stroke="#a7124b" d="M332.446,-134.044C343.279,-113.393 356.28,-91.998 371,-74 380.747,-62.0833 393.439,-50.9786 405.216,-41.912"/>
<ellipse fill="none" stroke="#a7124b" cx="330.536" cy="-137.754" rx="4.00002" ry="4.00002"/>
<polygon fill="#a7124b" stroke="#a7124b" points="405.553,-41.6607 416.261,-39.297 409.563,-38.6742 413.573,-35.6878 413.573,-35.6878 413.573,-35.6878 409.563,-38.6742 410.886,-32.0787 405.553,-41.6607 405.553,-41.6607"/>
</g>
<!-- BlogIndex -->
<g id="node3" class="node"><title>BlogIndex</title>
<polyline fill="none" stroke="black" points="391.5,-141.5 498.5,-141.5 "/>
<path fill="none" stroke="black" d="M498.5,-141.5C504.5,-141.5 510.5,-147.5 510.5,-153.5"/>
<polyline fill="none" stroke="black" points="510.5,-153.5 510.5,-278.5 "/>
<path fill="none" stroke="black" d="M510.5,-278.5C510.5,-284.5 504.5,-290.5 498.5,-290.5"/>
<polyline fill="none" stroke="black" points="498.5,-290.5 391.5,-290.5 "/>
<path fill="none" stroke="black" d="M391.5,-290.5C385.5,-290.5 379.5,-284.5 379.5,-278.5"/>
<polyline fill="none" stroke="black" points="379.5,-278.5 379.5,-153.5 "/>
<path fill="none" stroke="black" d="M379.5,-153.5C379.5,-147.5 385.5,-141.5 391.5,-141.5"/>
<text text-anchor="middle" x="445" y="-273.9" font-family="Times Roman,serif" font-size="14.00">BlogIndex</text>
<polyline fill="none" stroke="black" points="379.5,-263.5 510.5,-263.5 "/>
<text text-anchor="start" x="387.5" y="-246.9" font-family="Times Roman,serif" font-size="14.00">id :integer</text>
<text text-anchor="start" x="387.5" y="-227.9" font-family="Times Roman,serif" font-size="14.00">title :string</text>
<text text-anchor="start" x="387.5" y="-208.9" font-family="Times Roman,serif" font-size="14.00">contents_id :integer</text>
<text text-anchor="start" x="387.5" y="-189.9" font-family="Times Roman,serif" font-size="14.00">detail_id :integer</text>
<text text-anchor="start" x="387.5" y="-170.9" font-family="Times Roman,serif" font-size="14.00">created_at :datetime</text>
<text text-anchor="start" x="387.5" y="-151.9" font-family="Times Roman,serif" font-size="14.00">updated_at :datetime</text>
</g>
<!-- BlogIndex&#45;&gt;BlogImage -->
<g id="edge6" class="edge"><title>BlogIndex&#45;&gt;BlogImage</title>
<path fill="none" stroke="#a0a628" d="M409.554,-134.044C398.721,-113.393 385.72,-91.998 371,-74 361.331,-62.1778 348.762,-51.1549 337.065,-42.1282"/>
<ellipse fill="none" stroke="#a0a628" cx="411.464" cy="-137.754" rx="4.00002" ry="4.00002"/>
<polygon fill="#a0a628" stroke="#a0a628" points="336.769,-41.9074 331.448,-32.3193 332.762,-38.9164 328.756,-35.9253 328.756,-35.9253 328.756,-35.9253 332.762,-38.9164 326.064,-39.5314 336.769,-41.9074 336.769,-41.9074"/>
</g>
<!-- BlogIndex&#45;&gt;BlogTexte -->
<g id="edge8" class="edge"><title>BlogIndex&#45;&gt;BlogTexte</title>
<path fill="none" stroke="#306769" d="M442.469,-132.883C441.552,-102.799 440.576,-70.7528 439.894,-48.3441"/>
<ellipse fill="none" stroke="#306769" cx="442.601" cy="-137.244" rx="4" ry="4"/>
<polygon fill="#306769" stroke="#306769" points="439.888,-48.1638 444.082,-38.0314 439.736,-43.1662 439.584,-38.1685 439.584,-38.1685 439.584,-38.1685 439.736,-43.1662 435.086,-38.3055 439.888,-48.1638 439.888,-48.1638"/>
</g>
<!-- BlogTextes -->
<g id="node4" class="node"><title>BlogTextes</title>
<polyline fill="none" stroke="black" points="539.5,-141.5 646.5,-141.5 "/>
<path fill="none" stroke="black" d="M646.5,-141.5C652.5,-141.5 658.5,-147.5 658.5,-153.5"/>
<polyline fill="none" stroke="black" points="658.5,-153.5 658.5,-278.5 "/>
<path fill="none" stroke="black" d="M658.5,-278.5C658.5,-284.5 652.5,-290.5 646.5,-290.5"/>
<polyline fill="none" stroke="black" points="646.5,-290.5 539.5,-290.5 "/>
<path fill="none" stroke="black" d="M539.5,-290.5C533.5,-290.5 527.5,-284.5 527.5,-278.5"/>
<polyline fill="none" stroke="black" points="527.5,-278.5 527.5,-153.5 "/>
<path fill="none" stroke="black" d="M527.5,-153.5C527.5,-147.5 533.5,-141.5 539.5,-141.5"/>
<text text-anchor="middle" x="593" y="-273.9" font-family="Times Roman,serif" font-size="14.00">BlogTextes</text>
<polyline fill="none" stroke="black" points="527.5,-263.5 658.5,-263.5 "/>
<text text-anchor="start" x="535.5" y="-246.9" font-family="Times Roman,serif" font-size="14.00">id :integer</text>
<text text-anchor="start" x="535.5" y="-227.9" font-family="Times Roman,serif" font-size="14.00">contents_id :integer</text>
<text text-anchor="start" x="535.5" y="-208.9" font-family="Times Roman,serif" font-size="14.00">detail_id :integer</text>
<text text-anchor="start" x="535.5" y="-189.9" font-family="Times Roman,serif" font-size="14.00">text :text</text>
<text text-anchor="start" x="535.5" y="-170.9" font-family="Times Roman,serif" font-size="14.00">created_at :datetime</text>
<text text-anchor="start" x="535.5" y="-151.9" font-family="Times Roman,serif" font-size="14.00">updated_at :datetime</text>
</g>
<!-- BlogUser -->
<g id="node5" class="node"><title>BlogUser</title>
<polyline fill="none" stroke="black" points="688,-75 864,-75 "/>
<path fill="none" stroke="black" d="M864,-75C870,-75 876,-81 876,-87"/>
<polyline fill="none" stroke="black" points="876,-87 876,-345 "/>
<path fill="none" stroke="black" d="M876,-345C876,-351 870,-357 864,-357"/>
<polyline fill="none" stroke="black" points="864,-357 688,-357 "/>
<path fill="none" stroke="black" d="M688,-357C682,-357 676,-351 676,-345"/>
<polyline fill="none" stroke="black" points="676,-345 676,-87 "/>
<path fill="none" stroke="black" d="M676,-87C676,-81 682,-75 688,-75"/>
<text text-anchor="middle" x="776" y="-340.4" font-family="Times Roman,serif" font-size="14.00">BlogUser</text>
<polyline fill="none" stroke="black" points="676,-330 876,-330 "/>
<text text-anchor="start" x="684" y="-313.4" font-family="Times Roman,serif" font-size="14.00">id :integer</text>
<text text-anchor="start" x="684" y="-294.4" font-family="Times Roman,serif" font-size="14.00">email :string</text>
<text text-anchor="start" x="684" y="-275.4" font-family="Times Roman,serif" font-size="14.00">encrypted_password :string</text>
<text text-anchor="start" x="684" y="-256.4" font-family="Times Roman,serif" font-size="14.00">reset_password_token :string</text>
<text text-anchor="start" x="684" y="-237.4" font-family="Times Roman,serif" font-size="14.00">reset_password_sent_at :datetime</text>
<text text-anchor="start" x="684" y="-218.4" font-family="Times Roman,serif" font-size="14.00">remember_created_at :datetime</text>
<text text-anchor="start" x="684" y="-199.4" font-family="Times Roman,serif" font-size="14.00">sign_in_count :integer</text>
<text text-anchor="start" x="684" y="-180.4" font-family="Times Roman,serif" font-size="14.00">current_sign_in_at :datetime</text>
<text text-anchor="start" x="684" y="-161.4" font-family="Times Roman,serif" font-size="14.00">last_sign_in_at :datetime</text>
<text text-anchor="start" x="684" y="-142.4" font-family="Times Roman,serif" font-size="14.00">current_sign_in_ip :string</text>
<text text-anchor="start" x="684" y="-123.4" font-family="Times Roman,serif" font-size="14.00">last_sign_in_ip :string</text>
<text text-anchor="start" x="684" y="-104.4" font-family="Times Roman,serif" font-size="14.00">created_at :datetime</text>
<text text-anchor="start" x="684" y="-85.4" font-family="Times Roman,serif" font-size="14.00">updated_at :datetime</text>
</g>
</g>
</svg>
